<svg width="18" height="20" viewBox="0 0 18 20" fill="none" xmlns="http://www.w3.org/2000/svg">
<path d="M6.61223 17.3111V14.763C6.61223 14.1125 7.14339 13.5852 7.79861 13.5852H10.1938C10.5084 13.5852 10.8102 13.7093 11.0327 13.9302C11.2551 14.151 11.3801 14.4506 11.3801 14.763V17.3111C11.3782 17.5815 11.485 17.8415 11.6769 18.0334C11.8688 18.2254 12.13 18.3333 12.4024 18.3333H14.0364C14.7996 18.3353 15.5322 18.0357 16.0726 17.5006C16.6129 16.9656 16.9166 16.2391 16.9166 15.4815V8.22234C16.9166 7.61034 16.6433 7.02983 16.1704 6.63718L10.6116 2.22985C9.64464 1.45709 8.25918 1.48204 7.32108 2.28911L1.8891 6.63718C1.39387 7.01825 1.09788 7.60049 1.08325 8.22234V15.4741C1.08325 17.0532 2.37274 18.3333 3.9634 18.3333H5.56016C6.12594 18.3333 6.58575 17.8801 6.58985 17.3185L6.61223 17.3111Z" fill="#0398AE" stroke="#0398AE" stroke-width="1.42857" stroke-linecap="round" stroke-linejoin="round"/>
</svg>
