<svg width="21" height="21" viewBox="0 0 21 21" fill="none" xmlns="http://www.w3.org/2000/svg">
<path d="M20.4414 18.8404L15.6322 14.0321C17.0261 12.3586 17.7212 10.2122 17.5729 8.03932C17.4245 5.86643 16.4441 3.83438 14.8357 2.36589C13.2273 0.897401 11.1147 0.105534 8.93728 0.155019C6.7599 0.204504 4.68541 1.09153 3.14537 2.63157C1.60532 4.17162 0.718298 6.2461 0.668813 8.42349C0.619328 10.6009 1.41119 12.7135 2.87968 14.3219C4.34817 15.9304 6.38022 16.9107 8.55311 17.0591C10.726 17.2074 12.8724 16.5123 14.5459 15.1184L19.3542 19.9276C19.4256 19.999 19.5103 20.0557 19.6036 20.0943C19.6969 20.1329 19.7968 20.1528 19.8978 20.1528C19.9988 20.1528 20.0987 20.1329 20.192 20.0943C20.2853 20.0557 20.3701 19.999 20.4414 19.9276C20.5128 19.8563 20.5695 19.7715 20.6081 19.6782C20.6467 19.5849 20.6666 19.485 20.6666 19.384C20.6666 19.283 20.6467 19.1831 20.6081 19.0898C20.5695 18.9965 20.5128 18.9118 20.4414 18.8404ZM2.22465 8.62644C2.22465 7.25866 2.63024 5.92161 3.39014 4.78435C4.15003 3.64709 5.2301 2.7607 6.49375 2.23727C7.75741 1.71385 9.1479 1.5769 10.4894 1.84374C11.8309 2.11058 13.0631 2.76922 14.0303 3.73638C14.9974 4.70355 15.6561 5.93578 15.9229 7.27727C16.1898 8.61877 16.0528 10.0093 15.5294 11.2729C15.006 12.5366 14.1196 13.6166 12.9823 14.3765C11.8451 15.1364 10.508 15.542 9.14023 15.542C7.30673 15.54 5.54891 14.8107 4.25242 13.5142C2.95594 12.2178 2.22669 10.4599 2.22465 8.62644Z" fill="#0398AE"/>
</svg>
