<svg width="22" height="22" viewBox="0 0 22 22" fill="none" xmlns="http://www.w3.org/2000/svg">
<circle cx="9.5" cy="9.5" r="7.5" fill="#0398AE"/>
<path d="M20.7748 19.6875L15.9656 14.8793C17.3595 13.2058 18.0546 11.0594 17.9062 8.88649C17.7579 6.7136 16.7775 4.68155 15.1691 3.21306C13.5607 1.74457 11.448 0.952702 9.27066 1.00219C7.09327 1.05167 5.01878 1.9387 3.47874 3.47874C1.9387 5.01878 1.05167 7.09327 1.00219 9.27066C0.952702 11.448 1.74457 13.5607 3.21306 15.1691C4.68155 16.7775 6.7136 17.7579 8.88649 17.9062C11.0594 18.0546 13.2058 17.3595 14.8793 15.9656L19.6875 20.7748C19.7589 20.8462 19.8437 20.9028 19.937 20.9415C20.0302 20.9801 20.1302 21 20.2312 21C20.3321 21 20.4321 20.9801 20.5254 20.9415C20.6187 20.9028 20.7034 20.8462 20.7748 20.7748C20.8462 20.7034 20.9028 20.6187 20.9415 20.5254C20.9801 20.4321 21 20.3321 21 20.2312C21 20.1302 20.9801 20.0302 20.9415 19.937C20.9028 19.8437 20.8462 19.7589 20.7748 19.6875ZM2.55803 9.47361C2.55803 8.10583 2.96362 6.76878 3.72351 5.63151C4.4834 4.49425 5.56347 3.60787 6.82713 3.08444C8.09078 2.56102 9.48128 2.42407 10.8228 2.69091C12.1643 2.95775 13.3965 3.61639 14.3637 4.58355C15.3308 5.55071 15.9895 6.78295 16.2563 8.12444C16.5231 9.46593 16.3862 10.8564 15.8628 12.1201C15.3393 13.3837 14.453 14.4638 13.3157 15.2237C12.1784 15.9836 10.8414 16.3892 9.47361 16.3892C7.6401 16.3872 5.88228 15.6579 4.5858 14.3614C3.28932 13.0649 2.56006 11.3071 2.55803 9.47361Z" fill="white" stroke="white" stroke-linecap="round" stroke-linejoin="round"/>
</svg>
