<svg width="18" height="20" viewBox="0 0 18 20" fill="none" xmlns="http://www.w3.org/2000/svg">
<path d="M6.61236 17.3111V14.763C6.61236 14.1126 7.14352 13.5853 7.79874 13.5853H10.1939C10.5085 13.5853 10.8103 13.7094 11.0328 13.9302C11.2553 14.1511 11.3803 14.4507 11.3803 14.763V17.3111C11.3783 17.5816 11.4851 17.8416 11.677 18.0335C11.8689 18.2254 12.1301 18.3334 12.4025 18.3333H14.0366C14.7997 18.3353 15.5323 18.0357 16.0727 17.5007C16.613 16.9657 16.9167 16.2392 16.9167 15.4815V8.2224C16.9167 7.6104 16.6434 7.02989 16.1706 6.63724L10.6117 2.22991C9.64476 1.45716 8.2593 1.48211 7.3212 2.28917L1.88922 6.63724C1.39399 7.01831 1.098 7.60055 1.08337 8.2224V15.4741C1.08337 17.0532 2.37286 18.3333 3.96352 18.3333H5.56028C6.12606 18.3334 6.58587 17.8802 6.58997 17.3185L6.61236 17.3111Z" fill="white" stroke="#0398AE" stroke-width="1.42857" stroke-linecap="round" stroke-linejoin="round"/>
</svg>
