<svg width="38" height="37" viewBox="0 0 38 37" fill="none" xmlns="http://www.w3.org/2000/svg">
<g clip-path="url(#clip0_371_2062)">
<rect width="38" height="37" rx="10" fill="white"/>
<g filter="url(#filter0_d_371_2062)">
<path d="M24.9374 7.40002C24.3911 7.40002 23.86 7.45099 23.3495 7.5494C20.7747 8.04578 17.2252 8.04578 14.6504 7.5494C14.1399 7.45099 13.6088 7.40002 13.0625 7.40002C11.1105 7.40217 9.23907 8.15813 7.85881 9.50207C6.47855 10.846 5.70215 12.6682 5.69995 14.5688C5.69995 22.6625 18.025 29.2138 18.5499 29.4844C18.6882 29.5569 18.8429 29.5948 19 29.5948C19.157 29.5948 19.3117 29.5569 19.45 29.4844C19.9749 29.2138 32.2999 22.6625 32.2999 14.5688C32.2977 12.6682 31.5214 10.846 30.1411 9.50207C28.7608 8.15813 26.8894 7.40217 24.9374 7.40002Z" fill="url(#paint0_linear_371_2062)"/>
</g>
<path d="M11.8749 19.4261H7.12493C6.87297 19.4261 6.63133 19.3286 6.45318 19.1551C6.27502 18.9817 6.17493 18.7464 6.17493 18.5011C6.17493 18.2557 6.27502 18.0204 6.45318 17.847C6.63133 17.6735 6.87297 17.576 7.12493 17.576H11.3667L12.9841 15.2126C13.0708 15.0857 13.1883 14.9817 13.3263 14.9097C13.4643 14.8377 13.6184 14.8 13.7749 14.8C13.9315 14.8 14.0856 14.8377 14.2235 14.9097C14.3615 14.9817 14.4791 15.0857 14.5658 15.2126C15.7409 16.9285 16.3998 17.8905 17.5749 19.6065L18.6841 17.9877C18.7709 17.8609 18.8885 17.7571 19.0265 17.6853C19.1644 17.6135 19.3185 17.5759 19.4749 17.576H22.3249C22.5769 17.576 22.8185 17.6735 22.9967 17.847C23.1748 18.0204 23.2749 18.2557 23.2749 18.5011C23.2749 18.7464 23.1748 18.9817 22.9967 19.1551C22.8185 19.3286 22.5769 19.4261 22.3249 19.4261H19.9832L18.3658 21.7895C18.2791 21.9164 18.1615 22.0205 18.0235 22.0924C17.8856 22.1644 17.7315 22.2021 17.5749 22.2021C17.4184 22.2021 17.2643 22.1644 17.1263 22.0924C16.9883 22.0205 16.8708 21.9164 16.7841 21.7895L13.7749 17.3933L12.6658 19.0121C12.5792 19.1393 12.4617 19.2436 12.3238 19.3158C12.1858 19.388 12.0316 19.4259 11.8749 19.4261Z" fill="white"/>
</g>
<defs>
<filter id="filter0_d_371_2062" x="1.69995" y="7.40002" width="34.6" height="30.1948" filterUnits="userSpaceOnUse" color-interpolation-filters="sRGB">
<feFlood flood-opacity="0" result="BackgroundImageFix"/>
<feColorMatrix in="SourceAlpha" type="matrix" values="0 0 0 0 0 0 0 0 0 0 0 0 0 0 0 0 0 0 127 0" result="hardAlpha"/>
<feOffset dy="4"/>
<feGaussianBlur stdDeviation="2"/>
<feComposite in2="hardAlpha" operator="out"/>
<feColorMatrix type="matrix" values="0 0 0 0 0.0508391 0 0 0 0 0.30741 0 0 0 0 0.348611 0 0 0 0.2 0"/>
<feBlend mode="normal" in2="BackgroundImageFix" result="effect1_dropShadow_371_2062"/>
<feBlend mode="normal" in="SourceGraphic" in2="effect1_dropShadow_371_2062" result="shape"/>
</filter>
<linearGradient id="paint0_linear_371_2062" x1="19" y1="7.40002" x2="19" y2="29.5948" gradientUnits="userSpaceOnUse">
<stop stop-color="#0398AE"/>
<stop offset="1" stop-color="#032538"/>
</linearGradient>
<clipPath id="clip0_371_2062">
<rect width="38" height="37" fill="white"/>
</clipPath>
</defs>
</svg>
