<svg width="118" height="30" viewBox="0 0 118 30" fill="none" xmlns="http://www.w3.org/2000/svg">
<g clip-path="url(#clip0_186_4721)">
<g filter="url(#filter0_d_186_4721)">
<rect y="1.5" width="28" height="27" rx="4" fill="url(#paint0_linear_186_4721)"/>
</g>
<path d="M18.375 6.90002C16.5681 6.90002 14.9861 7.64927 14 8.91574C13.0139 7.64927 11.4319 6.90002 9.62501 6.90002C8.18671 6.90159 6.80778 7.45324 5.79075 8.43395C4.77371 9.41466 4.20163 10.7443 4.20001 12.1313C4.20001 18.0375 13.2816 22.8182 13.6684 23.0156C13.7703 23.0685 13.8843 23.0962 14 23.0962C14.1158 23.0962 14.2297 23.0685 14.3316 23.0156C14.7184 22.8182 23.8 18.0375 23.8 12.1313C23.7984 10.7443 23.2263 9.41466 22.2093 8.43395C21.1922 7.45324 19.8133 6.90159 18.375 6.90002Z" fill="white"/>
<path d="M8.74999 15.6758H5.24999C5.06434 15.6758 4.88629 15.6047 4.75501 15.4781C4.62374 15.3515 4.54999 15.1798 4.54999 15.0008C4.54999 14.8218 4.62374 14.6501 4.75501 14.5235C4.88629 14.3969 5.06434 14.3258 5.24999 14.3258H8.37549L9.56724 12.6011C9.63114 12.5085 9.71777 12.4326 9.81944 12.38C9.9211 12.3275 10.0347 12.3 10.15 12.3C10.2653 12.3 10.3789 12.3275 10.4805 12.38C10.5822 12.4326 10.6688 12.5085 10.7327 12.6011C11.5986 13.8532 12.0841 14.5553 12.95 15.8074L13.7672 14.6261C13.8312 14.5337 13.9179 14.4579 14.0195 14.4055C14.1212 14.3531 14.2347 14.3257 14.35 14.3258H16.45C16.6356 14.3258 16.8137 14.3969 16.945 14.5235C17.0762 14.6501 17.15 14.8218 17.15 15.0008C17.15 15.1798 17.0762 15.3515 16.945 15.4781C16.8137 15.6047 16.6356 15.6758 16.45 15.6758H14.7245L13.5327 17.4005C13.4688 17.4931 13.3822 17.569 13.2805 17.6215C13.1789 17.674 13.0653 17.7015 12.95 17.7015C12.8347 17.7015 12.7211 17.674 12.6194 17.6215C12.5178 17.569 12.4311 17.4931 12.3672 17.4005L10.15 14.1924L9.33274 15.3737C9.26896 15.4665 9.18238 15.5426 9.08071 15.5953C8.97903 15.648 8.86542 15.6757 8.74999 15.6758Z" fill="url(#paint1_linear_186_4721)"/>
</g>
<path d="M35.892 7.45455L39.4077 18.5057H39.5426L43.0653 7.45455H46.4744L41.4602 22H37.4972L32.4759 7.45455H35.892ZM48.1683 22V11.0909H51.1939V22H48.1683ZM49.6882 9.68466C49.2384 9.68466 48.8525 9.53551 48.5305 9.23722C48.2133 8.93419 48.0547 8.57197 48.0547 8.15057C48.0547 7.7339 48.2133 7.37642 48.5305 7.07812C48.8525 6.77509 49.2384 6.62358 49.6882 6.62358C50.138 6.62358 50.5215 6.77509 50.8388 7.07812C51.1607 7.37642 51.3217 7.7339 51.3217 8.15057C51.3217 8.57197 51.1607 8.93419 50.8388 9.23722C50.5215 9.53551 50.138 9.68466 49.6882 9.68466ZM59.4201 11.0909V13.3636H52.8505V11.0909H59.4201ZM54.342 8.47727H57.3675V18.6477C57.3675 18.9271 57.4102 19.1449 57.4954 19.3011C57.5806 19.4527 57.699 19.5592 57.8505 19.6207C58.0067 19.6823 58.1867 19.7131 58.3903 19.7131C58.5323 19.7131 58.6744 19.7012 58.8164 19.6776C58.9585 19.6491 59.0674 19.6278 59.1431 19.6136L59.619 21.8651C59.4674 21.9124 59.2544 21.9669 58.9798 22.0284C58.7051 22.0947 58.3713 22.1349 57.9783 22.1491C57.2492 22.1776 56.61 22.0805 56.0607 21.858C55.5162 21.6354 55.0924 21.2898 54.7894 20.821C54.4864 20.3523 54.3372 19.7604 54.342 19.0455V8.47727ZM64.5018 22.206C63.8058 22.206 63.1855 22.0852 62.641 21.8438C62.0965 21.5975 61.6656 21.2353 61.3484 20.7571C61.0359 20.2741 60.8796 19.6728 60.8796 18.9531C60.8796 18.3471 60.9909 17.8381 61.2134 17.4261C61.436 17.0142 61.739 16.6828 62.1225 16.4318C62.506 16.1809 62.9416 15.9915 63.4293 15.8636C63.9218 15.7358 64.4379 15.6458 64.9776 15.5938C65.6121 15.5275 66.1235 15.4659 66.5117 15.4091C66.9 15.3475 67.1817 15.2576 67.3569 15.1392C67.5321 15.0208 67.6197 14.8456 67.6197 14.6136V14.571C67.6197 14.1212 67.4776 13.7732 67.1935 13.527C66.9142 13.2808 66.5165 13.1577 66.0004 13.1577C65.4558 13.1577 65.0226 13.2784 64.7006 13.5199C64.3787 13.7566 64.1656 14.0549 64.0614 14.4148L61.2631 14.1875C61.4052 13.5246 61.6845 12.9517 62.1012 12.4688C62.5179 11.9811 63.0553 11.607 63.7134 11.3466C64.3763 11.0814 65.1433 10.9489 66.0146 10.9489C66.6206 10.9489 67.2006 11.0199 67.7546 11.1619C68.3133 11.304 68.8081 11.5241 69.239 11.8224C69.6746 12.1207 70.0179 12.5043 70.2688 12.973C70.5198 13.437 70.6452 13.9934 70.6452 14.642V22H67.7759V20.4872H67.6907C67.5155 20.8281 67.2811 21.1288 66.9876 21.3892C66.694 21.6449 66.3413 21.8461 65.9293 21.9929C65.5174 22.1349 65.0415 22.206 64.5018 22.206ZM65.3683 20.1179C65.8133 20.1179 66.2063 20.0303 66.5472 19.8551C66.8881 19.6752 67.1557 19.4337 67.3498 19.1307C67.5439 18.8277 67.641 18.4844 67.641 18.1009V16.9432C67.5463 17.0047 67.4161 17.0616 67.2504 17.1136C67.0894 17.161 66.9071 17.206 66.7035 17.2486C66.4999 17.2865 66.2963 17.322 66.0927 17.3551C65.8891 17.3835 65.7044 17.4096 65.5387 17.4332C65.1836 17.4853 64.8735 17.5682 64.6083 17.6818C64.3432 17.7955 64.1372 17.9493 63.9904 18.1435C63.8436 18.3329 63.7702 18.5696 63.7702 18.8537C63.7702 19.2656 63.9194 19.5805 64.2177 19.7983C64.5207 20.0114 64.9042 20.1179 65.3683 20.1179ZM76.0181 7.45455V22H72.9925V7.45455H76.0181Z" fill="#0398AE"/>
<path d="M81.0057 22H77.7102L82.7315 7.45455H86.6946L91.7088 22H88.4134L84.7699 10.7784H84.6562L81.0057 22ZM80.7997 16.2827H88.5838V18.6832H80.7997V16.2827ZM93.4027 26.0909V11.0909H96.3857V12.9233H96.5206C96.6532 12.6297 96.8449 12.3314 97.0959 12.0284C97.3516 11.7206 97.683 11.465 98.0902 11.2614C98.5021 11.053 99.0135 10.9489 99.6243 10.9489C100.42 10.9489 101.154 11.1572 101.826 11.5739C102.498 11.9858 103.036 12.6084 103.438 13.4418C103.841 14.2704 104.042 15.3097 104.042 16.5597C104.042 17.7765 103.845 18.804 103.452 19.642C103.064 20.4754 102.534 21.1075 101.862 21.5384C101.194 21.9645 100.446 22.1776 99.6172 22.1776C99.0301 22.1776 98.5305 22.0805 98.1186 21.8864C97.7114 21.6922 97.3776 21.4484 97.1172 21.1548C96.8568 20.8565 96.6579 20.5559 96.5206 20.2528H96.4283V26.0909H93.4027ZM96.3643 16.5455C96.3643 17.1941 96.4543 17.7599 96.6342 18.2429C96.8142 18.7259 97.0746 19.1023 97.4155 19.3722C97.7564 19.6373 98.1707 19.7699 98.6584 19.7699C99.1508 19.7699 99.5675 19.6349 99.9084 19.3651C100.249 19.0904 100.507 18.7116 100.683 18.2287C100.862 17.741 100.952 17.1799 100.952 16.5455C100.952 15.9157 100.865 15.3617 100.69 14.8835C100.514 14.4053 100.256 14.0312 99.9155 13.7614C99.5746 13.4915 99.1555 13.3565 98.6584 13.3565C98.166 13.3565 97.7493 13.4867 97.4084 13.7472C97.0722 14.0076 96.8142 14.3769 96.6342 14.8551C96.4543 15.3333 96.3643 15.8968 96.3643 16.5455ZM106.059 26.0909V11.0909H109.042V12.9233H109.177C109.309 12.6297 109.501 12.3314 109.752 12.0284C110.008 11.7206 110.339 11.465 110.746 11.2614C111.158 11.053 111.67 10.9489 112.281 10.9489C113.076 10.9489 113.81 11.1572 114.482 11.5739C115.155 11.9858 115.692 12.6084 116.094 13.4418C116.497 14.2704 116.698 15.3097 116.698 16.5597C116.698 17.7765 116.502 18.804 116.109 19.642C115.72 20.4754 115.19 21.1075 114.518 21.5384C113.85 21.9645 113.102 22.1776 112.273 22.1776C111.686 22.1776 111.187 22.0805 110.775 21.8864C110.368 21.6922 110.034 21.4484 109.773 21.1548C109.513 20.8565 109.314 20.5559 109.177 20.2528H109.085V26.0909H106.059ZM109.021 16.5455C109.021 17.1941 109.111 17.7599 109.29 18.2429C109.47 18.7259 109.731 19.1023 110.072 19.3722C110.413 19.6373 110.827 19.7699 111.315 19.7699C111.807 19.7699 112.224 19.6349 112.565 19.3651C112.906 19.0904 113.164 18.7116 113.339 18.2287C113.519 17.741 113.609 17.1799 113.609 16.5455C113.609 15.9157 113.521 15.3617 113.346 14.8835C113.171 14.4053 112.913 14.0312 112.572 13.7614C112.231 13.4915 111.812 13.3565 111.315 13.3565C110.822 13.3565 110.406 13.4867 110.065 13.7472C109.728 14.0076 109.47 14.3769 109.29 14.8551C109.111 15.3333 109.021 15.8968 109.021 16.5455Z" fill="#27646D"/>
<defs>
<filter id="filter0_d_186_4721" x="-4" y="1.5" width="36" height="35" filterUnits="userSpaceOnUse" color-interpolation-filters="sRGB">
<feFlood flood-opacity="0" result="BackgroundImageFix"/>
<feColorMatrix in="SourceAlpha" type="matrix" values="0 0 0 0 0 0 0 0 0 0 0 0 0 0 0 0 0 0 127 0" result="hardAlpha"/>
<feOffset dy="4"/>
<feGaussianBlur stdDeviation="2"/>
<feComposite in2="hardAlpha" operator="out"/>
<feColorMatrix type="matrix" values="0 0 0 0 0.0508391 0 0 0 0 0.30741 0 0 0 0 0.348611 0 0 0 0.2 0"/>
<feBlend mode="normal" in2="BackgroundImageFix" result="effect1_dropShadow_186_4721"/>
<feBlend mode="normal" in="SourceGraphic" in2="effect1_dropShadow_186_4721" result="shape"/>
</filter>
<linearGradient id="paint0_linear_186_4721" x1="14" y1="1.5" x2="14" y2="28.5" gradientUnits="userSpaceOnUse">
<stop stop-color="#0398AE"/>
<stop offset="1" stop-color="#27646D"/>
</linearGradient>
<linearGradient id="paint1_linear_186_4721" x1="10.85" y1="12.3" x2="10.85" y2="17.7015" gradientUnits="userSpaceOnUse">
<stop stop-color="#0398AE"/>
<stop offset="1" stop-color="#032538"/>
</linearGradient>
<clipPath id="clip0_186_4721">
<rect width="28" height="27" fill="white" transform="translate(0 1.5)"/>
</clipPath>
</defs>
</svg>
